<svg width="42" height="24" viewBox="0 0 42 24" fill="none" xmlns="http://www.w3.org/2000/svg">
<path fill-rule="evenodd" clip-rule="evenodd" d="M20.9314 5.23222L18.2418 17.8029H14.9887L17.6793 5.23222H20.9314ZM34.6136 13.3474L36.3269 8.62877L37.3104 13.3474H34.6136ZM38.2434 17.8029H41.2498L38.6273 5.23222H35.849C35.2256 5.23222 34.6982 5.59551 34.465 6.15386L29.5864 17.8029H32.9984L33.6786 15.9255H37.8512L38.2434 17.8029ZM29.7536 13.7004C29.7691 10.3781 25.166 10.1975 25.198 8.71753C25.2083 8.26445 25.6377 7.78454 26.5769 7.66172C27.0433 7.60083 28.3262 7.55438 29.7835 8.22317L30.3542 5.55629C29.574 5.27453 28.5646 5 27.3127 5C24.0988 5 21.8355 6.71015 21.8169 9.15926C21.7973 10.9675 23.4321 11.9768 24.6655 12.5795C25.9318 13.1947 26.356 13.5899 26.3529 14.1431C26.3426 14.9843 25.3394 15.3579 24.4054 15.3692C22.7706 15.3981 21.82 14.9296 21.0656 14.5797L20.4752 17.3333C21.2348 17.6821 22.6364 17.9825 24.0927 18C27.5078 18 29.7433 16.3105 29.7536 13.7004ZM16.284 5.23222L11.0152 17.8029H7.57637L4.9838 7.77009C4.82487 7.15084 4.6876 6.92791 4.20975 6.66577C3.4295 6.24055 2.13838 5.8432 1 5.59551L1.07947 5.23222H6.61242C7.31836 5.23222 7.95205 5.69975 8.11202 6.51405L9.48158 13.7891L12.8658 5.23222H16.284Z" fill="#4061B7"/>
<path d="M6.80231 5.21695H1.05876L1 5.58507C5.48033 6.74262 8.12256 9.77136 9.34167 13.1251L8.41809 6.38949C8.21253 5.4986 7.58082 5.24634 6.80231 5.21695Z" fill="#DD6B02"/>
</svg>
